<svg xmlns="http://www.w3.org/2000/svg" viewBox="0 0 429.5 297.98"><defs><style>.cls-1,.cls-2{fill:none;stroke:#fff;stroke-width:11px;}.cls-1{stroke-miterlimit:10;}.cls-2{stroke-linecap:round;stroke-linejoin:round;}</style></defs><g id="Layer_2" data-name="Layer 2"><g id="Layer_1-2" data-name="Layer 1"><path class="cls-1" d="M411.77,67.71l-71.84,41.48a1,1,0,0,1-1.49-.87V70.61a12,12,0,0,0-12-12H17.5a12,12,0,0,0-12,12V280.48a12,12,0,0,0,12,12H326.44a12,12,0,0,0,12-12v-49a1,1,0,0,1,1.49-.86l71.84,41.48A8.16,8.16,0,0,0,424,265.09V74.77A8.15,8.15,0,0,0,411.77,67.71Z"/><rect class="cls-1" x="29.33" y="82.44" width="107.91" height="38.61" rx="19.06"/><polyline class="cls-2" points="333.02 60.59 277.93 5.5 182.69 5.5"/></g></g></svg>